HIERARCHY
ROOT root
{
	OFFSET 0.000000 0.000000 0.000000
	CHANNELS 6 Xposition Yposition Zposition Zrotation Yrotation Xrotation
	JOINT lhip
	{
		OFFSET 0.058581 -0.082280 -0.017664
		CHANNELS 3 Zrotation Yrotation Xrotation
		JOINT lknee
		{
			OFFSET 0.043451 -0.386469 0.008037
			CHANNELS 3 Zrotation Yrotation Xrotation
			JOINT lankle
			{
				OFFSET -0.014790 -0.426874 -0.037428
				CHANNELS 3 Zrotation Yrotation Xrotation
				JOINT ltoe
				{
					OFFSET 0.041054 -0.060286 0.122042
					CHANNELS 3 Zrotation Yrotation Xrotation
					End Site
					{
						OFFSET 0.000000 0.000000 0.000000
					}
				}
			}
		}
	}
	JOINT rhip
	{
		OFFSET -0.060310 -0.090513 -0.013543
		CHANNELS 3 Zrotation Yrotation Xrotation
		JOINT rknee
		{
			OFFSET -0.043257 -0.383688 -0.004843
			CHANNELS 3 Zrotation Yrotation Xrotation
			JOINT rankle
			{
				OFFSET 0.019056 -0.420046 -0.034562
				CHANNELS 3 Zrotation Yrotation Xrotation
				JOINT rtoe
				{
					OFFSET -0.034840 -0.062106 0.130323
					CHANNELS 3 Zrotation Yrotation Xrotation
					End Site
					{
						OFFSET 0.000000 0.000000 0.000000
					}
				}
			}
		}
	}
	JOINT lowerback
	{
		OFFSET 0.004439 0.124404 -0.038385
		CHANNELS 3 Zrotation Yrotation Xrotation
		JOINT upperback
		{
			OFFSET 0.004488 0.137956 0.026820
			CHANNELS 3 Zrotation Yrotation Xrotation
			JOINT chest
			{
				OFFSET -0.002265 0.056032 0.002855
				CHANNELS 3 Zrotation Yrotation Xrotation
				JOINT lowerneck
				{
					OFFSET -0.013390 0.211636 -0.033468
					CHANNELS 3 Zrotation Yrotation Xrotation
					JOINT upperneck
					{
						OFFSET 0.010113 0.088937 0.050410
						CHANNELS 3 Zrotation Yrotation Xrotation
						End Site
						{
							OFFSET 0.000000 0.000000 0.000000
						}
					}
				}
				JOINT lclavicle
				{
					OFFSET 0.071702 0.114000 -0.018898
					CHANNELS 3 Zrotation Yrotation Xrotation
					JOINT lshoulder
					{
						OFFSET 0.122921 0.045205 -0.019046
						CHANNELS 3 Zrotation Yrotation Xrotation
						JOINT lelbow
						{
							OFFSET 0.255332 -0.015649 -0.022946
							CHANNELS 3 Zrotation Yrotation Xrotation
							JOINT lwrist
							{
								OFFSET 0.265709 0.012698 -0.007375
								CHANNELS 3 Zrotation Yrotation Xrotation
								End Site
								{
									OFFSET 0.000000 0.000000 0.000000
								}
							}
						}
					}
				}
				JOINT rclavicle
				{
					OFFSET -0.082954 0.112472 -0.023707
					CHANNELS 3 Zrotation Yrotation Xrotation
					JOINT rshoulder
					{
						OFFSET -0.113228 0.046853 -0.008472
						CHANNELS 3 Zrotation Yrotation Xrotation
						JOINT relbow
						{
							OFFSET -0.260127 -0.014369 -0.031269
							CHANNELS 3 Zrotation Yrotation Xrotation
							JOINT rwrist
							{
								OFFSET -0.269108 0.006794 -0.006027
								CHANNELS 3 Zrotation Yrotation Xrotation
								End Site
								{
									OFFSET 0.000000 0.000000 0.000000
								}
							}
						}
					}
				}
			}
		}
	}
}
MOTION
Frames: 7
Frame Time: 0.033333
0.285005 -0.132540 1.042503 171.118273 1.301688 88.350715 0.031875 0.814199 -9.815759 -7.794942 -5.151319 7.956054 3.317689 7.464861 2.527326 0.000000 -0.000000 0.000000 0.155798 -0.188282 -10.309496 6.416662 -7.931090 32.355949 7.026210 -4.429703 -1.791349 0.000000 -0.000000 0.000000 -2.166293 1.733364 17.555676 3.143834 -0.639703 -4.026535 1.267950 -1.309463 -2.513500 5.194549 -0.854773 10.355427 2.636842 -0.984021 20.590406 -26.876461 -2.555518 0.615204 -44.534221 -10.393956 5.401528 15.608823 -26.461775 -4.656121 4.010692 -8.141032 5.881256 22.784269 2.179415 0.984460 47.503649 5.766043 14.424126 -16.745165 48.829690 1.168552 4.873377 6.484302 -5.805228 
0.284869 -0.126248 1.037176 171.075406 1.649718 88.303564 0.040922 0.795539 -9.645026 -7.833198 -5.833445 8.683883 4.084251 8.413210 0.347733 0.000000 -0.000000 0.000000 0.330145 1.732074 -12.448688 6.523112 -7.724471 36.309561 7.575113 -4.802365 -4.411532 0.000000 -0.000000 0.000000 -2.381318 1.089473 18.190576 3.353254 -0.421048 -4.445021 1.346773 -1.374103 -2.287470 5.710680 -0.404314 9.114183 2.369761 -1.129327 20.024552 -26.871782 -2.536100 0.580552 -45.133497 -10.701620 5.026362 16.331558 -26.560113 -6.150101 5.144106 -8.370150 5.165067 22.792357 2.258689 0.810220 47.778095 6.447098 14.398936 -17.679673 48.520209 -0.162178 4.231404 6.527817 -6.402182 
0.284749 -0.122316 1.034836 171.254469 1.873564 88.646776 0.079780 0.473312 -10.226616 -7.816598 -6.105172 9.613966 3.927040 8.857415 -0.977553 0.000000 -0.000000 0.000000 0.596464 3.477509 -15.063741 6.488761 -6.857034 38.271275 7.525090 -4.345744 -7.765670 0.000000 -0.000000 0.000000 -2.331164 0.653415 18.655548 3.445304 -0.459772 -4.770559 1.442021 -1.571230 -2.197461 5.809625 0.270427 8.080994 2.246916 -1.400638 18.931703 -26.642418 -2.999619 0.645175 -45.992671 -10.985418 5.270225 17.057704 -25.947234 -7.402150 6.268632 -8.272615 3.932103 22.682593 2.616140 0.901500 48.189905 6.700965 14.495919 -17.813416 47.458441 -0.428649 3.187257 6.474043 -7.040470 
0.284479 -0.119333 1.035197 171.431045 1.985672 89.209748 -0.065086 0.276559 -10.619981 -7.449864 -6.529743 9.627173 3.379279 9.053839 -1.475505 0.000000 -0.000000 0.000000 0.764354 4.546864 -17.103316 6.144810 -5.517447 36.705434 6.990379 -3.744941 -11.101888 0.000000 -0.000000 0.000000 -1.893992 0.391196 18.773330 3.300317 -0.566084 -4.980994 1.503821 -1.734516 -2.167950 5.405098 0.828883 7.373906 2.260620 -1.505865 17.460068 -26.161591 -3.662299 0.728492 -47.022408 -11.443215 5.911502 17.409686 -24.962419 -7.631852 7.247940 -8.039907 2.827345 22.314609 3.105964 1.222837 48.651759 6.496273 14.612299 -16.823120 45.649737 0.691811 2.044199 6.361805 -7.271080 
0.284255 -0.115917 1.037071 171.519108 1.947443 89.825922 -0.433037 0.186391 -10.308387 -6.779549 -7.080719 8.303683 2.882737 9.185811 -1.325920 0.000000 -0.000000 0.000000 0.749393 4.812527 -17.988889 5.376189 -4.250229 32.052109 6.398603 -4.003044 -13.168812 0.000000 -0.000000 0.000000 -1.317528 0.255408 18.433107 2.995852 -0.624481 -4.897333 1.580900 -1.800098 -2.363760 4.585417 0.979579 7.060525 2.340327 -1.305573 15.873955 -25.760806 -4.211083 0.899508 -47.832977 -12.045627 6.597327 17.269076 -24.276579 -6.859108 7.619300 -7.786437 2.184993 21.885158 3.539731 1.730047 48.852084 5.904940 14.704737 -14.914394 43.343747 2.846401 1.537627 6.225064 -6.699095 
0.284727 -0.111253 1.038865 171.609287 1.724526 90.350574 -0.795555 0.240027 -9.143075 -6.199134 -7.529436 5.758615 2.480000 9.050966 -0.731701 0.000000 -0.000000 0.000000 0.567996 4.280721 -17.672897 4.502521 -3.532461 26.248329 6.018391 -4.705852 -13.015531 0.000000 -0.000000 0.000000 -0.934364 0.185526 17.715465 2.671500 -0.640607 -4.484360 1.729862 -1.794854 -2.872233 3.558870 0.733120 7.076068 2.428522 -0.993587 14.473535 -25.571149 -4.507932 1.164714 -48.331835 -12.608477 7.123503 16.788455 -24.215377 -5.622152 6.754721 -7.308485 1.652556 21.588824 3.743375 2.351271 48.826774 5.170319 14.717449 -12.710997 40.637207 5.374335 2.124159 5.980811 -5.213578 
0.286303 -0.105206 1.039213 171.806811 1.236320 90.764399 -1.077306 0.508386 -7.157915 -5.978690 -7.872124 2.127030 2.144632 8.589863 0.178347 0.000000 -0.000000 0.000000 0.143785 2.965761 -16.415759 4.014872 -3.317140 21.024779 5.742892 -4.847837 -10.539393 0.000000 -0.000000 0.000000 -0.908506 0.210723 16.677289 2.332136 -0.715843 -3.832134 1.885230 -1.743336 -3.612285 2.522513 0.335085 7.315538 2.528135 -0.837892 13.335114 -25.445641 -4.610684 1.410493 -48.617488 -13.067906 7.474382 16.183073 -24.630111 -4.269865 5.155666 -6.678630 1.046603 21.452750 3.698137 2.922162 48.981717 4.442887 14.589496 -10.746993 37.401185 7.802184 3.362801 5.502531 -3.323571 
